<svg width="192" height="96" viewBox="0 0 192 96" fill="none" xmlns="http://www.w3.org/2000/svg">
<g filter="url(#filter0_d_1_96)">
<rect x="30" y="20" width="132" height="36" rx="4" fill="white" fill-opacity="0.9"/>
</g>
<path d="M65.6802 42V33.6H71.7522V34.464H66.6282V37.332H71.2122V38.196H66.6282V41.136H71.8122V42H65.6802ZM73.7193 42V33.6H76.6353C77.9473 33.6 79.0193 34 79.8513 34.8C80.6833 35.592 81.0993 36.592 81.0993 37.8C81.0993 39 80.6793 40 79.8393 40.8C79.0073 41.6 77.9392 42 76.6353 42H73.7193ZM74.6673 41.124H76.6353C77.6833 41.124 78.5233 40.812 79.1553 40.188C79.7953 39.556 80.1153 38.76 80.1153 37.8C80.1153 36.848 79.7953 36.056 79.1553 35.424C78.5153 34.792 77.6753 34.476 76.6353 34.476H74.6673V41.124ZM83.19 42V33.6H84.138V42H83.19ZM88.8182 42V34.476H85.9982V33.6H92.5982V34.476H89.7782V42H88.8182ZM97.9771 42V33.6H101.121C102.081 33.6 102.845 33.84 103.413 34.32C103.981 34.8 104.265 35.456 104.265 36.288C104.265 37.16 103.949 37.836 103.317 38.316C102.693 38.796 101.909 39.036 100.965 39.036H98.9251V42H97.9771ZM98.9251 38.172H101.001C101.697 38.172 102.253 38.004 102.669 37.668C103.093 37.324 103.305 36.868 103.305 36.3C103.305 35.716 103.101 35.268 102.693 34.956C102.293 34.636 101.745 34.476 101.049 34.476H98.9251V38.172ZM105.993 42V33.6H109.605C110.637 33.6 111.433 33.88 111.993 34.44C112.425 34.872 112.641 35.432 112.641 36.12C112.641 36.792 112.433 37.336 112.017 37.752C111.601 38.168 111.049 38.44 110.361 38.568L112.941 42H111.777L109.341 38.736H106.941V42H105.993ZM106.941 37.884H109.521C110.161 37.884 110.681 37.728 111.081 37.416C111.481 37.104 111.681 36.676 111.681 36.132C111.681 35.612 111.489 35.208 111.105 34.92C110.729 34.624 110.205 34.476 109.533 34.476H106.941V37.884ZM121.649 40.872C120.841 41.72 119.813 42.144 118.565 42.144C117.317 42.144 116.293 41.72 115.493 40.872C114.693 40.024 114.293 39 114.293 37.8C114.293 36.608 114.697 35.588 115.505 34.74C116.313 33.884 117.341 33.456 118.589 33.456C119.837 33.456 120.861 33.88 121.661 34.728C122.461 35.576 122.861 36.6 122.861 37.8C122.861 38.992 122.457 40.016 121.649 40.872ZM116.213 40.26C116.845 40.932 117.637 41.268 118.589 41.268C119.541 41.268 120.325 40.936 120.941 40.272C121.565 39.6 121.877 38.776 121.877 37.8C121.877 36.832 121.561 36.012 120.929 35.34C120.305 34.668 119.517 34.332 118.565 34.332C117.613 34.332 116.825 34.668 116.201 35.34C115.585 36.004 115.277 36.824 115.277 37.8C115.277 38.768 115.589 39.588 116.213 40.26ZM124.86 42V33.6H130.896V34.476H125.808V37.476H130.356V38.34H125.808V42H124.86ZM132.819 42V33.6H133.767V42H132.819ZM136.227 42V33.6H137.175V41.124H141.903V42H136.227ZM143.657 42V33.6H149.729V34.464H144.605V37.332H149.189V38.196H144.605V41.136H149.789V42H143.657Z" fill="#181818"/>
<g clip-path="url(#clip0_1_96)">
<path d="M47.0257 32.6149H42.359C42.0054 32.6149 41.6663 32.7554 41.4162 33.0054C41.1662 33.2555 41.0257 33.5946 41.0257 33.9482V43.2816C41.0257 43.6352 41.1662 43.9743 41.4162 44.2244C41.6663 44.4744 42.0054 44.6149 42.359 44.6149H51.6924C52.046 44.6149 52.3851 44.4744 52.6352 44.2244C52.8852 43.9743 53.0257 43.6352 53.0257 43.2816V38.6149" stroke="#181818" stroke-linecap="round" stroke-linejoin="round"/>
<path d="M52.0257 31.6148C52.2909 31.3496 52.6506 31.2006 53.0257 31.2006C53.4008 31.2006 53.7605 31.3496 54.0257 31.6148C54.2909 31.8801 54.4399 32.2398 54.4399 32.6148C54.4399 32.9899 54.2909 33.3496 54.0257 33.6148L47.6924 39.9482L45.0257 40.6148L45.6924 37.9482L52.0257 31.6148Z" stroke="#181818" stroke-linecap="round" stroke-linejoin="round"/>
</g>
<defs>
<filter id="filter0_d_1_96" x="0" y="0" width="192" height="96" filterUnits="userSpaceOnUse" color-interpolation-filters="sRGB">
<feFlood flood-opacity="0" result="BackgroundImageFix"/>
<feColorMatrix in="SourceAlpha" type="matrix" values="0 0 0 0 0 0 0 0 0 0 0 0 0 0 0 0 0 0 127 0" result="hardAlpha"/>
<feOffset dy="10"/>
<feGaussianBlur stdDeviation="15"/>
<feColorMatrix type="matrix" values="0 0 0 0 0.442708 0 0 0 0 0.481771 0 0 0 0 0.520833 0 0 0 0.05 0"/>
<feBlend mode="normal" in2="BackgroundImageFix" result="effect1_dropShadow_1_96"/>
<feBlend mode="normal" in="SourceGraphic" in2="effect1_dropShadow_1_96" result="shape"/>
</filter>
<clipPath id="clip0_1_96">
<rect width="16" height="16" fill="white" transform="translate(39.6924 29.9482)"/>
</clipPath>
</defs>
</svg>
